<svg xmlns="http://www.w3.org/2000/svg" width="16" height="16" fill="none" viewBox="0 0 16 16"><path fill="#FF3E00" d="M13.821 2.12a4.549 4.549 0 0 1 .776 3.448c-.1.568-.325 1.11-.64 1.597.469.885.622 1.904.441 2.888a4.281 4.281 0 0 1-1.93 2.86L8.74 15.288c-2.12 1.354-5.062.722-6.542-1.408a4.51 4.51 0 0 1-.776-3.438c.099-.568.324-1.11.64-1.597a4.452 4.452 0 0 1-.442-2.888 4.261 4.261 0 0 1 1.931-2.86L7.278.712C9.4-.641 12.332-.01 13.821 2.12Z"/><path fill="#fff" d="M6.908 14.096c.27-.072.523-.18.758-.334l3.727-2.373a2.572 2.572 0 0 0 1.164-1.724 2.747 2.747 0 0 0-.469-2.076 2.97 2.97 0 0 0-3.177-1.182 2.59 2.59 0 0 0-.758.334l-1.425.903a.718.718 0 0 1-.226.099.893.893 0 0 1-.957-.352.85.85 0 0 1-.144-.623.725.725 0 0 1 .352-.514L9.48 3.88a.718.718 0 0 1 .226-.099.893.893 0 0 1 .956.352.816.816 0 0 1 .154.55v.136c-.01 0 .126.045.126.045.523.162 1.02.406 1.462.731l.19.144.072-.216c.036-.117.063-.235.09-.352a2.748 2.748 0 0 0-.47-2.076A2.97 2.97 0 0 0 9.11 1.913a2.59 2.59 0 0 0-.758.334L4.625 4.62A2.572 2.572 0 0 0 3.46 6.344 2.748 2.748 0 0 0 3.93 8.42a2.97 2.97 0 0 0 3.177 1.182c.27-.072.523-.18.758-.334l1.425-.912a.718.718 0 0 1 .226-.099.893.893 0 0 1 .957.352.85.85 0 0 1 .144.623.76.76 0 0 1-.352.523L6.538 12.13a.715.715 0 0 1-.226.099.893.893 0 0 1-.956-.352.817.817 0 0 1-.154-.55v-.136c.01 0-.126-.045-.126-.045a4.939 4.939 0 0 1-1.462-.731l-.19-.144-.072.216a5.02 5.02 0 0 0-.09.352c-.126.722.036 1.471.47 2.076a2.97 2.97 0 0 0 3.176 1.182Z"/></svg>